<svg xmlns="http://www.w3.org/2000/svg" viewBox="0 0 536.1 99.4"><defs><style>.cls-1{fill:#fff;}.cls-2{fill:#e16162;}.cls-3{fill:#7f3b45;}.cls-4{fill:#b2505a;}</style></defs><g id="Ebene_2" data-name="Ebene 2"><g id="Ebene_1-2" data-name="Ebene 1"><path class="cls-1" d="M91.62,29.4h17.63a30.76,30.76,0,0,1,14.94,3.44,24.76,24.76,0,0,1,9.8,9.5,27.69,27.69,0,0,1,3.48,14,27.72,27.72,0,0,1-3.48,14A24.77,24.77,0,0,1,124.16,80a30.53,30.53,0,0,1-14.91,3.48H91.62Zm17.85,45.34A19.54,19.54,0,0,0,119,72.49a15.53,15.53,0,0,0,6.28-6.39,20.33,20.33,0,0,0,2.21-9.72,19.81,19.81,0,0,0-2.25-9.68A15.9,15.9,0,0,0,119,40.35a19.28,19.28,0,0,0-9.54-2.25h-8V74.74Z"/><path class="cls-1" d="M141.72,29.4h9.5V39.55h-9.5Zm0,14.58h9.5V83.44h-9.5Z"/><path class="cls-1" d="M164.51,96.24a16.2,16.2,0,0,1-6.93-8.38l8.85-3.33A8.22,8.22,0,0,0,169.88,89a11.27,11.27,0,0,0,6.34,1.7,10.25,10.25,0,0,0,7-2.43A8.56,8.56,0,0,0,186,81.48V77.2q-4.22,4.65-11.39,4.64a19.14,19.14,0,0,1-9.87-2.54,18.17,18.17,0,0,1-6.82-7,20.1,20.1,0,0,1-2.46-9.94,19.82,19.82,0,0,1,2.46-9.93,18.22,18.22,0,0,1,6.75-6.86,18.86,18.86,0,0,1,9.72-2.5,14.88,14.88,0,0,1,12.11,5.44V44h9v37.5a17.2,17.2,0,0,1-9.29,15.6,20.89,20.89,0,0,1-10,2.32A21.54,21.54,0,0,1,164.51,96.24Zm18.64-26.15A10.52,10.52,0,0,0,186,62.48a10.67,10.67,0,0,0-2.87-7.66,9.73,9.73,0,0,0-7.36-3,10.53,10.53,0,0,0-5.37,1.38A9.78,9.78,0,0,0,166.68,57a11.18,11.18,0,0,0-1.34,5.48,10.42,10.42,0,0,0,2.94,7.58,10.07,10.07,0,0,0,7.51,3A9.74,9.74,0,0,0,183.15,70.09Z"/><path class="cls-1" d="M202.15,29.4h9.5V39.55h-9.5Zm0,14.58h9.5V83.44h-9.5Z"/><path class="cls-1" d="M218,38V29.4h9.5V44h9.07v8.49h-9.07v16.9a6.21,6.21,0,0,0,1.59,4.57q1.6,1.59,5.08,1.59a15.77,15.77,0,0,0,2.54-.22v8.2a30.74,30.74,0,0,1-4.71.36q-6.67,0-10.34-3.69T218,69.87V52.47"/><path class="cls-1" d="M244.69,81.26A10.15,10.15,0,0,1,241,73a11,11,0,0,1,3.34-8.19q3.33-3.27,10.3-4.43l11.75-1.89v-1.3a5.34,5.34,0,0,0-2-4.24,7.81,7.81,0,0,0-5.26-1.71,9.28,9.28,0,0,0-5.44,1.63,9.51,9.51,0,0,0-3.41,4.32l-7.76-3.77a14.6,14.6,0,0,1,6.38-7.47,19.91,19.91,0,0,1,10.59-2.83A19.43,19.43,0,0,1,268,44.88a14.2,14.2,0,0,1,5.76,5,13,13,0,0,1,2.11,7.33V83.44h-9V79.23q-4.65,5.08-12.33,5.08Q248.4,84.31,244.69,81.26Zm7.69-5.4a6.15,6.15,0,0,0,3.92,1.2,9.81,9.81,0,0,0,7.29-2.83,9.46,9.46,0,0,0,2.79-6.89v-1.6l-9.94,1.67q-5.58,1.08-5.58,5.22A3.91,3.91,0,0,0,252.38,75.86Z"/><path class="cls-1" d="M282.35,29.4h9.5v54h-9.5Z"/><path class="cls-2" d="M406.82,38V29.4h9.5V44h9.07v8.49h-9.07v16.9a6.22,6.22,0,0,0,1.6,4.57C419,75,420.68,75.53,423,75.53a15.86,15.86,0,0,0,2.54-.22v8.2a30.77,30.77,0,0,1-4.72.36q-6.68,0-10.34-3.69t-3.66-10.31V52.47"/><path class="cls-2" d="M298.31,29.4h20.17a22.72,22.72,0,0,1,9.76,2,15.45,15.45,0,0,1,6.64,5.77,17,17,0,0,1,2.39,9.28,16.93,16.93,0,0,1-2.43,9.22,15.57,15.57,0,0,1-6.64,5.84,22.47,22.47,0,0,1-9.72,2h-10.3V83.44h-9.87Zm20.31,25.39A8.88,8.88,0,0,0,325,52.5a8,8,0,0,0,2.39-6.06A7.94,7.94,0,0,0,325,40.35a9,9,0,0,0-6.39-2.25H308.18V54.79Z"/><path class="cls-2" d="M342,81.26a10.13,10.13,0,0,1-3.7-8.27,11,11,0,0,1,3.34-8.19Q345,61.53,352,60.37l11.75-1.89v-1.3a5.35,5.35,0,0,0-2-4.24,7.79,7.79,0,0,0-5.25-1.71A9.25,9.25,0,0,0,351,52.86a9.51,9.51,0,0,0-3.41,4.32l-7.77-3.77a14.67,14.67,0,0,1,6.39-7.47,19.88,19.88,0,0,1,10.59-2.83,19.36,19.36,0,0,1,8.52,1.77,14.23,14.23,0,0,1,5.77,5,13,13,0,0,1,2.1,7.33V83.44h-9V79.23q-4.65,5.08-12.33,5.08Q345.74,84.31,342,81.26Zm7.69-5.4a6.13,6.13,0,0,0,3.92,1.2,9.81,9.81,0,0,0,7.29-2.83,9.46,9.46,0,0,0,2.79-6.89v-1.6l-9.94,1.67q-5.58,1.08-5.58,5.22A3.89,3.89,0,0,0,349.72,75.86Z"/><path class="cls-2" d="M379.6,44h8.92v5.58a9,9,0,0,1,4.28-4.71,14.78,14.78,0,0,1,6.38-1.31h2.33V52H398.1a8.8,8.8,0,0,0-6.5,2.5,9.5,9.5,0,0,0-2.5,7v22h-9.5Z"/><path class="cls-2" d="M431.92,44h8.92v4.86a10.3,10.3,0,0,1,4.53-4.28A14.76,14.76,0,0,1,452,43.11,15.59,15.59,0,0,1,459.73,45,13.44,13.44,0,0,1,465,50.25a15.69,15.69,0,0,1,1.89,7.8V83.44h-9.5V60.3a8.51,8.51,0,0,0-2.22-6.2,8.36,8.36,0,0,0-11.53,0,8.56,8.56,0,0,0-2.21,6.17V83.44h-9.5Z"/><path class="cls-2" d="M480.78,81.55a19.06,19.06,0,0,1-7.11-7.47,21.69,21.69,0,0,1-2.54-10.45,21.22,21.22,0,0,1,2.58-10.55,19.38,19.38,0,0,1,7-7.29,19,19,0,0,1,10-2.68,19.5,19.5,0,0,1,10.44,2.64,17.63,17.63,0,0,1,6.53,7,20.73,20.73,0,0,1,2.25,9.65,18.81,18.81,0,0,1-.11,2.14,7.24,7.24,0,0,1-.4,1.85H481A10.15,10.15,0,0,0,491.51,76a10.27,10.27,0,0,0,5.55-1.42,10.42,10.42,0,0,0,3.6-3.66l7.68,3.77A14.93,14.93,0,0,1,502,81.59a21.91,21.91,0,0,1-21.22,0Zm3.81-28.47a10.28,10.28,0,0,0-3.38,6.06h18.57A8.58,8.58,0,0,0,497,53.23a8.92,8.92,0,0,0-6.27-2.29A9.31,9.31,0,0,0,484.59,53.08Z"/><path class="cls-2" d="M514.19,44h8.92v5.58a9,9,0,0,1,4.28-4.71,14.79,14.79,0,0,1,6.39-1.31h2.32V52h-3.41a8.77,8.77,0,0,0-6.49,2.5,9.46,9.46,0,0,0-2.51,7v22h-9.5Z"/><path class="cls-3" d="M73.62,83.44H20.78A20.78,20.78,0,0,1,0,62.66V29.45H52.85A20.77,20.77,0,0,1,73.62,50.23Z"/><path class="cls-4" d="M73.62,83.44,30.46,72.65A20.77,20.77,0,0,1,14.72,52.49V14.72L57.88,25.51A20.79,20.79,0,0,1,73.62,45.67Z"/><path class="cls-2" d="M73.62,83.44,38.7,60.16a20.77,20.77,0,0,1-9.25-17.29V0L64.37,23.28a20.77,20.77,0,0,1,9.25,17.29Z"/></g></g></svg>